<?xml version="1.0" encoding="UTF-8"?>
<svg id="Layer_2" data-name="Layer 2" xmlns="http://www.w3.org/2000/svg" viewBox="0 0 225.12 288.42">
  <defs>
    <style>
      .cls-1 {
        stroke: #1b1464;
      }

      .cls-1, .cls-2, .cls-3, .cls-4, .cls-5 {
        fill: #fff;
      }

      .cls-1, .cls-6, .cls-7 {
        stroke-miterlimit: 10;
      }

      .cls-2 {
        fill-rule: evenodd;
      }

      .cls-2, .cls-8, .cls-9, .cls-10, .cls-11, .cls-12, .cls-4, .cls-13, .cls-5, .cls-14, .cls-15 {
        stroke-width: 0px;
      }

      .cls-6 {
        stroke: #29abe2;
        stroke-width: 2px;
      }

      .cls-6, .cls-15 {
        fill: #29abe2;
      }

      .cls-8, .cls-7 {
        fill: #2e3192;
      }

      .cls-9 {
        fill: #f2f2f2;
      }

      .cls-10 {
        fill: #ffff71;
      }

      .cls-7 {
        stroke: #e6e6e6;
        stroke-width: 5px;
      }

      .cls-11 {
        fill: #ffff80;
      }

      .cls-3 {
        font-family: FuturaBT-Bold, 'Futura Md BT';
        font-size: 5.43px;
        font-weight: 700;
      }

      .cls-12 {
        fill: #e6e6e6;
      }

      .cls-4 {
        opacity: .5;
      }

      .cls-4, .cls-13 {
        isolation: isolate;
      }

      .cls-13 {
        fill: #ff0;
      }

      .cls-14 {
        fill: #1b1464;
      }
    </style>
  </defs>
  <g id="Layer_1-2" data-name="Layer 1">
    <g>
      <path class="cls-4" d="M31.4,92.74c0-2.26,1.83-4.09,4.09-4.09h76.37c2.26,0,4.09,1.83,4.09,4.09s-1.83,4.09-4.09,4.09H35.49c-2.26,0-4.09-1.83-4.09-4.09Z"/>
      <path class="cls-13" d="M73.68,0C43.55,0,19.13,24.42,19.13,54.55c0,7.76,1.62,15.14,4.54,21.82h100.03c2.92-6.68,4.54-14.06,4.54-21.82,0-2.52-3.78-2.94-5.09-.78-6.21,10.28-17.49,17.15-30.37,17.15-19.58,0-35.46-15.88-35.46-35.46,0-12.88,6.87-24.16,17.15-30.37C76.62,3.78,76.21,0,73.68,0Z"/>
      <path class="cls-11" d="M116.78,1.68c-.88-2.23-4.03-2.23-4.91,0l-2.35,5.98c-.27.68-.81,1.22-1.49,1.49l-5.95,2.36c-2.23.88-2.23,4.04,0,4.92l5.95,2.36c.68.27,1.22.81,1.49,1.49l2.35,5.98c.88,2.23,4.03,2.23,4.91,0l2.35-5.98c.27-.68.81-1.22,1.49-1.49l5.95-2.36c2.23-.88,2.23-4.04,0-4.92l-5.95-2.36c-.68-.27-1.22-.81-1.49-1.49l-2.35-5.98Z"/>
      <path class="cls-10" d="M95.68,33.44c-.88-2.23-4.03-2.23-4.91,0l-.86,2.18c-.27.68-.81,1.22-1.49,1.49l-2.17.86c-2.23.88-2.23,4.04,0,4.92l2.17.86c.68.27,1.22.81,1.49,1.49l.86,2.18c.88,2.23,4.03,2.23,4.91,0l.86-2.18c.27-.68.81-1.22,1.49-1.49l2.17-.86c2.23-.88,2.23-4.04,0-4.92l-2.17-.86c-.68-.27-1.22-.81-1.49-1.49l-.86-2.18Z"/>
      <path class="cls-2" d="M13.11,76.37c0-2.26,1.83-4.09,4.09-4.09h109.11c2.26,0,4.09,1.83,4.09,4.09s-1.83,4.09-4.09,4.09H17.2c-2.26,0-4.09-1.83-4.09-4.09ZM45.84,109.11c0-2.26,1.83-4.09,4.09-4.09h43.64c2.26,0,4.09,1.83,4.09,4.09s-1.83,4.09-4.09,4.09h-43.64c-2.26,0-4.09-1.83-4.09-4.09Z"/>
      <path class="cls-5" d="M168.34,137.97c0,27.94-25.19,14.61-56.2,14.61s-56.09,13.32-56.09-14.61,25.14-50.58,56.14-50.58,56.14,22.65,56.14,50.58Z"/>
      <path class="cls-5" d="M125.6,288.42h-30.51c-7.58,0-14.24-5-16.37-12.27l-27.18-93.13c-3.18-10.91,5-21.83,16.37-21.83h87.84c11.58,0,19.79,11.29,16.22,22.3l-30.16,93.13c-2.28,7.03-8.83,11.8-16.22,11.8Z"/>
      <path class="cls-14" d="M154.3,134.42c0,18.65-19.07,9.76-42.54,9.76s-42.45,8.9-42.45-9.76,19.03-33.77,42.5-33.77,42.5,15.12,42.5,33.77Z"/>
      <path class="cls-15" d="M126.75,131.72c0,3.43-5.7,6.21-12.72,6.21-7.03,0-12.72-2.78-12.72-6.21s5.61-3.21,12.64-3.21,12.81-.22,12.81,3.21Z"/>
      <ellipse class="cls-7" cx="112.19" cy="203.19" rx="36.22" ry="32.25"/>
      <g>
        <path class="cls-12" d="M107.01,196.04l-5.04,4.55c-.61.55-1.57.2-1.7-.61l-1.2-7.53c-.13-.84.72-1.48,1.47-1.1l2.32,1.18,3.89,1.79c.68.31.81,1.23.26,1.73Z"/>
        <path class="cls-12" d="M118.43,194.99l4.56-4.13c.58-.53,1.51-.15,1.57.64l.66,8.48c.06.82-.86,1.33-1.51.84l-2.17-1.65s-.04-.03-.06-.05l-3.04-2.7c-.43-.38-.43-1.05,0-1.43Z"/>
        <path class="cls-8" d="M119.98,195.75l2.6-2.35c.33-.3.86-.09.89.36l.37,4.84c.04.47-.49.76-.86.48l-1.24-.94s-.02-.02-.03-.03l-1.73-1.54c-.24-.22-.25-.6,0-.82Z"/>
        <path class="cls-8" d="M105.48,196.35l-2.6,2.34c-.31.28-.81.1-.87-.32l-.62-3.88c-.07-.43.37-.76.76-.57l1.2.61,2,.92c.35.16.42.63.13.89Z"/>
        <ellipse class="cls-5" cx="112.84" cy="206.33" rx="13.84" ry="12.34"/>
        <g>
          <path class="cls-14" d="M112.85,215.05c-5.1,0-9.24-3.32-9.24-7.4s4.15-7.39,9.24-7.39,9.24,3.32,9.24,7.39-4.15,7.4-9.24,7.4Z"/>
          <path class="cls-9" d="M112.85,200.76c4.82,0,8.74,3.09,8.74,6.89s-3.92,6.89-8.74,6.89-8.74-3.09-8.74-6.89,3.92-6.89,8.74-6.89M112.85,199.76c-5.38,0-9.74,3.53-9.74,7.89s4.36,7.89,9.74,7.89,9.74-3.53,9.74-7.89-4.36-7.89-9.74-7.89h0Z"/>
        </g>
        <ellipse class="cls-15" cx="108.44" cy="207.13" rx="1.57" ry="2.82"/>
        <ellipse class="cls-15" cx="116.91" cy="207.13" rx="1.57" ry="2.82"/>
        <path class="cls-15" d="M114.61,211.27c0,.49-.8.89-1.8.89s-1.8-.4-1.8-.89.79-.46,1.79-.46,1.81-.03,1.81.46Z"/>
      </g>
      <rect class="cls-5" x="77.78" y="204.65" width="5.89" height=".91"/>
      <rect class="cls-5" x="141.17" y="204.2" width="5.89" height=".91"/>
      <rect class="cls-5" x="109.7" y="175" width="5.89" height=".91" transform="translate(-62.8 288.1) rotate(-90)"/>
      <rect class="cls-5" x="109.7" y="230.69" width="5.89" height=".91" transform="translate(-118.49 343.79) rotate(-90)"/>
      <rect class="cls-5" x="109.7" y="175" width="5.89" height=".91" transform="translate(-62.8 288.1) rotate(-90)"/>
      <rect class="cls-5" x="109.7" y="175" width="5.89" height=".91" transform="translate(-62.8 288.1) rotate(-90)"/>
      <text class="cls-3" transform="translate(109.19 184.28)"><tspan x="0" y="0">12</tspan></text>
      <text class="cls-3" transform="translate(110.85 226.55)"><tspan x="0" y="0">6</tspan></text>
      <text class="cls-3" transform="translate(136.61 206.32)"><tspan x="0" y="0">3</tspan></text>
      <text class="cls-3" transform="translate(85.9 207.23)"><tspan x="0" y="0">9</tspan></text>
      <path id="Vector" class="cls-1" d="M196.26,163.43h23.94M195.88,158.92h24.72M198.65,145.41h19.18M198.65,145.41c-1.36,0-2.04,0-2.55.27-.44.24-.79.62-.99,1.08-.23.52-.17,1.2-.05,2.56l1.8,21.03c.2,2.33.3,3.49.82,4.37.46.77,1.13,1.4,1.94,1.78.92.44,2.09.44,4.42.44h8.39c2.33,0,3.5,0,4.42-.44.81-.39,1.49-1.01,1.94-1.78.52-.88.62-2.04.82-4.37l1.8-21.04c.12-1.36.17-2.03-.05-2.55-.2-.46-.55-.84-.99-1.08-.5-.27-1.18-.27-2.55-.27M198.65,145.41h-2.24c-2.03,0-3.04,0-3.63-.42-.52-.37-.86-.95-.92-1.59-.08-.72.43-1.6,1.43-3.37h0c.75-1.32,1.13-1.98,1.66-2.46.47-.43,1.03-.75,1.64-.95.68-.22,1.44-.22,2.95-.22h17.39c1.52,0,2.28,0,2.95.22.61.2,1.16.52,1.64.95.53.48.9,1.14,1.66,2.46,1.01,1.76,1.51,2.65,1.44,3.37-.07.64-.4,1.22-.92,1.59-.59.42-1.6.42-3.63.42h-2.24"/>
      <ellipse class="cls-8" cx="202" cy="172.81" rx="16.3" ry="13.58"/>
      <line class="cls-6" x1="121.18" y1="115.66" x2="140.01" y2="115.66"/>
      <line class="cls-6" x1="86.05" y1="115.4" x2="104.88" y2="115.4"/>
      <ellipse class="cls-8" cx="16.3" cy="143.48" rx="16.3" ry="13.58"/>
    </g>
  </g>
</svg>